<?xml version="1.0" encoding="UTF-8"?>
<svg id="_图层_1" data-name="图层 1" xmlns="http://www.w3.org/2000/svg" viewBox="0 0 64 64">
  <defs>
    <style>
      .cls-1 {
        fill: none;
      }

      .cls-2 {
        stroke: #000;
        stroke-miterlimit: 10;
        stroke-width: 1.95px;
      }
    </style>
  </defs>
  <line class="cls-1" x1="62" y1="2" x2="2" y2="62"/>
  <path class="cls-2" d="M60.69,54.51c.43.11,1.13,1.04,1.23,1.52.6,2.92-2.26,4.51-4.76,4.76H14.38c-4.21-.38-1.94-4.97-2.74-7.45s-5.77-4.79-7.75-6.57c-.25-.22-.72-.64-.86-.9-.41-.73-.47-5.04-.27-5.93.27-1.2,1.76-1.24,1.89-1.64.29-5.98,2.9-11.46,3.36-17.44.32-4.12-.3-8.1-.4-12.15-.03-1.39-.36-3.52,1-4.31,2.12-1.22,6.18.62,7.83,2.14,6.85,6.32-1.23,17.64-1.76,25.12-.24,3.45.42,7.14,2.25,10.1l5.1-3.53c-.14-3.5.6-5.67,3.24-7.95,2.01-1.74,9.98-6.2,12.46-6.18,2.17.02,3.22,1.58,4.3,3.15,1.42,2.06,3.37,4.88,2.56,7.44-.74,2.34-6.79,7.4-8.98,8.87-2.27,1.53-4.03,2.28-6.89,1.9-.73-.1-2.32-1.01-2.71-.93-.26.06-4.25,2.62-4.53,2.89-.16.16-.18.13-.12.41,2.34,1.08,4.44,2.63,6.8,3.7,5.54,2.51,11.17,2.99,17.2,3.13.33-.1,2.54-3.08,2.61-3.49.05-.33-1.26-1.03-1.08-2.64s3.26-7.01,4.6-7.97c.62-.44,1.52-.81,2.3-.75s4.5,1.96,5.11,2.51c.51.46.91,1.59.9,2.26-.03,1.65-3.26,8.21-4.68,9.01-.45.25-1.31.26-1.36.31-.02.02-.03.59,0,.59,1.55,0,5.78-.3,6.96,0ZM9.92,5.3c-.55.11-1.07.7-1.12,1.26.76,7.01,1.03,13.77-.49,20.68-.6,2.72-2.73,8.59-2.26,11.08.11.56,7.24,4.55,8.33,5,2.08-.83.93-1.37.41-2.75-1.77-4.67-1.82-8.35-.63-13.18,1.47-5.98,6.95-15.08,1.12-20.07-1.11-.95-3.88-2.32-5.35-2.02ZM27.63,43.72c.05.07,1.47.5,1.72.54,3.43.49,7.05-2.81,9.47-4.95,2.1-1.86,5.43-4.23,4.41-7.35-.31-.95-2.48-4.46-3.15-5.29-2.04-2.53-5.85-.2-8.2.99s-6.22,3.4-7.54,5.6c-.38.63-1.46,3.27-1.02,3.79.27.31,5.59-4.14,7.13-4.06,1.65.09,3.92,3.91,3.61,5.48s-4.65,3.64-6.02,4.77c-.11.09-.48.37-.41.47ZM32.48,38.76c.99-.92-1.38-4.44-2.2-4.44-.39,0-5.7,3.4-6,3.8-.1.14-.17.23-.19.41-.06.57,2.02,3.96,2.66,3.95.73,0,4.68-3.31,5.73-3.72ZM22.92,39.4l-7.45,4.9,4.58,2.51,5.22-3.31-2.35-4.1ZM4.42,39.82c-.82.28-.63,4.4-.31,5.15.67,1.58,6.76,4.4,8.19,6.72,1.55,2.52.35,4.43.83,6.83.08.4.37.68.72.85l43.32.05c1.78.58,5.4-3.2,2.73-3.73-1.06-.21-5.05-.11-6.28-.01-.48.04-1.02.48-1.34.38-1.13-.33.43-2.35.18-2.74l-3-1.53c-1.43,1.16-2.09,3.39-3.93,4.26-2.77-.35-5.59-.26-8.36-.58-11.15-1.32-20.38-9.66-30.01-14.72-.75-.39-1.89-1.21-2.75-.92ZM53.08,41.21c-1.49.32-3.74,4.5-4.3,5.91-.31.8-.98,1.93-.27,2.69.41.44,5.17,2.79,5.69,2.74.61-.06,2.03-2.7,2.37-3.34.69-1.29,2.42-4.37,1.55-5.68-.43-.65-4.19-2.51-5.05-2.33Z"/>
</svg>