<?xml version="1.0" encoding="UTF-8"?>
<svg id="_图层_1" data-name="图层 1" xmlns="http://www.w3.org/2000/svg" viewBox="0 0 64 64">
  <defs>
    <style>
      .cls-1 {
        stroke: #000;
        stroke-miterlimit: 10;
        stroke-width: 1.95px;
      }

      .cls-2 {
        fill: none;
      }
    </style>
  </defs>
  <line class="cls-2" x1="62" y1="2" x2="2" y2="62"/>
  <path class="cls-1" d="M11.07,54.77c0,.32,2.48,1.74,2.36,3.34-.09,1.11-.71,1.72-1.78,1.91-1.79.31-3.34-2.48-3.51-2.31l-3.18,3.18c-.47.47-1.62-.67-1.14-1.14l3.18-3.18c.19-.19-3.74-2.4-1.72-4.49,2.22-2.29,4.46,1.75,4.66,1.55L45.65,17.91c.08-.08-.93-1.39-1.02-2.04-.1-.78.49-1.22.37-1.87-2.13,1.2-5.01,3.38-7.59,2.47-2.16-.76-3.07-3.05-1.81-5,1.93-2.99,9.17-4.28,12.58-4.97.83-.17,4.15-.45,4.56-.72.58-.37-.06-2.19,1.96-2.62,2.23-.48,7.56,3.91,6.03,6.19-1,1.49-2.01.81-3.09,1.54-.8.55-5.06,5.09-5.69,5.96-.57.79-.35,1.98-.99,2.62-1.41,1.42-4.08-.51-4.25-.33L11.07,54.77ZM57.64,5.85c-.51-.41-2.18-1.58-2.79-1.08-.57.48-.08,1.49-.66,2.29-1.02,1.43-3.65,3.91-5.02,5.38-2.18,2.35-4.75,2.82-1.16,5.52,2.24,1.68,1.74-.59,2.47-1.6.93-1.29,6.03-6.79,7.16-7.26.73-.3,1.8.4,1.81-.9,0-.92-1.12-1.81-1.81-2.35ZM51.35,7.63c-3.66.65-9.46,1.25-12.64,3.17-3.85,2.32-2.03,5.31,1.79,3.92s7.65-4.81,10.85-7.09ZM6.22,53.47c-.16.68,2.01,2.11,2.45,2.56.51.52,2.19,3.21,2.98,2.42.68-.69-.68-2.05-1.31-2.39-.36-.2-.83.11-1.32-.37s-.18-.95-.38-1.32c-.39-.73-2.1-2.24-2.41-.9Z"/>
  <path class="cls-1" d="M17.06,19.08c-.17-.17-2.84,1.75-4.25.33-.64-.64-.42-1.83-.99-2.62-.63-.87-4.88-5.41-5.69-5.96-1.08-.74-2.09-.06-3.09-1.54-1.53-2.28,3.79-6.66,6.03-6.19,2.02.43,1.38,2.25,1.96,2.62.42.26,3.74.55,4.56.72,3.41.68,10.65,1.97,12.58,4.97,1.26,1.95.34,4.24-1.81,5-2.58.91-5.46-1.27-7.59-2.47-.12.65.47,1.09.37,1.87-.09.65-1.1,1.96-1.02,2.04l35.72,35.72c.2.2,2.44-3.84,4.66-1.55,2.02,2.08-1.91,4.29-1.72,4.49l3.18,3.18c.47.47-.67,1.62-1.14,1.14l-3.18-3.18c-.16-.16-1.71,2.63-3.51,2.31-1.07-.19-1.7-.8-1.78-1.91-.12-1.6,2.36-3.02,2.36-3.34L17.06,19.08ZM4.33,8.15c0,1.3,1.08.59,1.81.9,1.12.47,6.22,5.97,7.16,7.26.73,1.01.23,3.29,2.47,1.6,3.59-2.7,1.02-3.17-1.16-5.52-1.37-1.48-4-3.96-5.02-5.38-.57-.8-.08-1.82-.66-2.29-.61-.51-2.27.67-2.79,1.08-.68.55-1.81,1.43-1.81,2.35ZM23.26,14.67c3.83,1.38,5.65-1.61,1.79-3.92-3.18-1.91-8.98-2.51-12.64-3.17,3.19,2.28,7.16,5.76,10.85,7.09ZM55.13,54.31c-.2.37.11.83-.38,1.32s-.96.18-1.32.37c-.63.34-2,1.7-1.31,2.39.78.79,2.47-1.9,2.98-2.42.44-.45,2.61-1.88,2.45-2.56-.31-1.34-2.03.17-2.41.9Z"/>
</svg>