<?xml version="1.0" encoding="UTF-8"?>
<svg id="_图层_1" data-name="图层 1" xmlns="http://www.w3.org/2000/svg" viewBox="0 0 64 64">
  <defs>
    <style>
      .cls-1 {
        stroke: #000;
        stroke-miterlimit: 10;
        stroke-width: 2px;
      }

      .cls-2 {
        fill: none;
      }
    </style>
  </defs>
  <line class="cls-2" x1="62" y1="2" x2="2" y2="62"/>
  <g>
    <path class="cls-1" d="M39.98,28.97c-.16.2-1,4.73-.98,4.98.06.56.77.53.77,1.5,0,.31-.4,2.27-.53,2.52-.23.45-.98.35-.44,1.04.17.22,2.79,1.44,3.29,1.68,3.04,1.42,12.43,4.52,14.26,6.39.94.96,1.63,2.77,1.77,4.09.13,1.25-.32,3.29-.17,4.13.09.46.52.59.71,1,.67,1.47.42,4.6-1.75,4.58-5.45-.36-11.5.48-16.87,0-3.4-.31-7.37-2.09-10.82-2.61-.41.08-.13,2.29-2.28,2.6s-9.58.29-11.74.02-2.23-2.85-1.97-4.62c.17-1.19,1.32-1.42,1.31-1.52-.01-.12-.81-1.77-.95-2.27-.83-2.9-.76-5.41.01-8.31.16-.62.89-1.86.89-2.31,0-.42-1.46-2.01-.9-2.99,2.42-8.08,3.2-17.14,5.47-25.17.27-.97.44-1.25,1.36-1.69-.25-2.08-1.23-4.56-1.33-6.61s1.54-2.94,3.42-2.46c2.02.53,1.87,4.17,2.58,4.61,2.82.88,5.55,2.01,8.41,2.77,2.27.61,5.37.9,7.44,1.66,3.81,1.39.52,5.04.93,6.44.08.26.84.53,1.09,1,.63,1.18-.74,3.97-1.07,5.31-.24.98-.08,3.27-1,3.92-.28.2-.88.26-.92.31ZM23.88,8.29c-.68-.75-.45-4.03-2.05-4.3-1.4-.24-1.46.69-1.39,1.77.05.72,1.05,6.05,1.31,6.26l18.95,6.15c-.1-1.4,1.72-4.01.07-4.89-3.35-.83-6.77-1.42-10.08-2.43-.83-.25-6.57-2.28-6.82-2.56ZM40.69,24.39c.17-.11,1.15-3.63,1.15-3.88,0-.29,0-.48-.3-.62l-20.22-6.69c-.36-.15-.68.08-.88.36l-5.51,25.51c-.72,1.36,2.57,3.78,2.43,4.51-.28,1.46-1.95-.72-2.05-.63-1.1,3.19-1.51,6.17-.47,9.44.19.61,1.23,2.45,1.22,2.75-.02.81-1.31.41-1.62,1.4-.16.5-.18,2.57.23,2.86.91.65,10.47-.13,12.29.17,1.21-.23.24-2.44,2.09-2.47,3.44.29,7.3,2.13,10.62,2.47,5.42.56,11.74-.42,17.26.01,1.05.25.71-2.72.41-2.98-.14-.12-.53-.09-.73-.32-.37-.43.17-1.34.21-1.91.18-3.1.18-5.75-2.84-7.37-2.84-1.52-15.02-5.54-16.31-7.37-.3-.42-.25-.94-.56-1.33-3.31-.77-6.78-1.21-9.96-2.36-1.63-1.94-.69-4.22,2.04-3.93,1.15.12,8.15,2.03,8.49,1.76.2-.15,1.08-4.43,1.12-4.95,0-.09.05-.22.01-.26-.2-.22-5.05-1.07-5.84-1.26-.88-.22-3.21-.65-3.82-1.1-1.38-1.04-.85-3.62.86-4.05,1.36-.27,10.22,2.54,10.68,2.24ZM30.42,23.31c-.96.13-1,1.62-.19,2l9.49,2.27c.74.24,1-1.69.61-1.96l-9.92-2.32ZM27.86,34.95c.68.68,8.63,1.7,10.08,2.29.29-.07.78-1.89.16-2.02l-9.64-2.1c-.81.12-1.13,1.3-.61,1.83Z"/>
    <path class="cls-1" d="M22.08,41.46c6.71-1.16,6.9,8.62.52,8.08-4.73-.4-4.54-7.38-.52-8.08ZM21.06,43.37c-2.62,2.66,1.51,6.89,4.18,4.08s-1.58-6.71-4.18-4.08Z"/>
  </g>
  <rect x="39" y="62" width="2" height="2"/>
</svg>