<?xml version="1.0" encoding="UTF-8"?>
<svg id="_图层_1" data-name="图层 1" xmlns="http://www.w3.org/2000/svg" viewBox="0 0 64 64">
  <defs>
    <style>
      .cls-1 {
        fill: none;
      }

      .cls-2 {
        stroke: #000;
        stroke-miterlimit: 10;
        stroke-width: 2.11px;
      }
    </style>
  </defs>
  <path class="cls-2" d="M45.3,6.96c0,.65-.34,1.77-.65,2.34-1.14,2.11-3.84,3.96-5.61,5.59-7.58,6.96-15.05,14.08-22.08,21.62-2.3,2.28-4.64,5.72-7.08,7.77-3.82,3.21-8.84-.17-7.1-4.8,2.46-3.21,5.83-6,8.81-8.81,7.24-6.81,13.71-13.39,20.46-20.68,2.05-2.22,5.1-6.6,8.12-7.17,2.54-.48,5.1,1.5,5.12,4.14ZM28.23,23.42c2.39-1.98,4.52-4.25,6.8-6.35,2.01-1.85,4.22-3.58,6.17-5.47s4.66-4.68,1.71-7.07c-2.56-2.08-5.19.86-6.87,2.6-3.02,3.13-5.82,6.55-8.78,9.72-.9.96-1.91,1.84-2.81,2.8l1.89-.4c1.63.16,2.79,1.75,2.26,3.32-.11.33-.52.62-.38.86ZM23.42,26.62l4.06-4.06c.34-.34.05-1.48-.33-1.83-.34-.31-1.44-.51-1.73-.22l-4.17,4.17c1.01.21,1.61,1.16,2.17,1.94ZM20.8,25.65c-.42.01-2.69,2.28-2.98,2.74-.68,1.07.71,2.46,1.78,1.78.38-.24,2.52-2.35,2.7-2.7.35-.66-.8-1.85-1.5-1.83ZM22.85,28.56l-2.57,2.57s-.77.21-.91.23c-1.26.15-2.71-.91-2.85-2.17-.03-.28.18-1.33.33-1.49l2.57-2.57c-.18-.23-.37.15-.51.28-1.78,1.64-3.48,3.39-5.26,5.04-3.14,2.92-6.46,5.7-9.47,8.79-1.29,1.9-.7,4.49,1.7,5.07s3.79-1.37,5.27-2.9c3.14-3.25,6.04-6.78,9.13-10.06.74-.79,1.57-1.49,2.3-2.29.13-.15.51-.34.28-.51Z"/>
  <path class="cls-2" d="M61.3,22.96c0,.65-.34,1.77-.65,2.34-1.14,2.11-3.84,3.96-5.61,5.59-7.58,6.96-15.05,14.08-22.08,21.62-2.3,2.28-4.64,5.72-7.08,7.77-3.82,3.21-8.84-.17-7.1-4.8,2.46-3.21,5.83-6,8.81-8.81,7.24-6.81,13.71-13.39,20.46-20.68,2.05-2.22,5.1-6.6,8.12-7.17,2.54-.48,5.1,1.5,5.12,4.14ZM44.23,39.42c2.39-1.98,4.52-4.25,6.8-6.35,2.01-1.85,4.22-3.58,6.17-5.47s4.66-4.68,1.71-7.07c-2.56-2.08-5.19.86-6.87,2.6-3.02,3.13-5.82,6.55-8.78,9.72-.9.96-1.91,1.84-2.81,2.8l1.89-.4c1.63.16,2.79,1.75,2.26,3.32-.11.33-.52.62-.38.86ZM39.42,42.62l4.06-4.06c.34-.34.05-1.48-.33-1.83-.34-.31-1.44-.51-1.73-.22l-4.17,4.17c1.01.21,1.61,1.16,2.17,1.94ZM36.8,41.65c-.42.01-2.69,2.28-2.98,2.74-.68,1.07.71,2.46,1.78,1.78.38-.24,2.52-2.35,2.7-2.7.35-.66-.8-1.85-1.5-1.83ZM38.85,44.56l-2.57,2.57s-.77.21-.91.23c-1.26.15-2.71-.91-2.85-2.17-.03-.28.18-1.33.33-1.49l2.57-2.57c-.18-.23-.37.15-.51.28-1.78,1.64-3.48,3.39-5.26,5.04-3.14,2.92-6.46,5.7-9.47,8.79-1.29,1.9-.7,4.49,1.7,5.07s3.79-1.37,5.27-2.9c3.14-3.25,6.04-6.78,9.13-10.06.74-.79,1.57-1.49,2.3-2.29.13-.15.51-.34.28-.51Z"/>
  <line class="cls-1" x1="62" y1="2" x2="2" y2="62"/>
  <rect x="39" y="62" width="2" height="2"/>
</svg>