<?xml version="1.0" encoding="UTF-8"?>
<svg id="_图层_1" data-name="图层 1" xmlns="http://www.w3.org/2000/svg" viewBox="0 0 64 64">
  <defs>
    <style>
      .cls-1 {
        fill: none;
      }

      .cls-2 {
        stroke: #000;
        stroke-miterlimit: 10;
        stroke-width: 2.23px;
      }
    </style>
  </defs>
  <g>
    <path class="cls-2" d="M56.64,4.08c3.8,2.88,5.33,7.35,3.46,11.79-1.86,4.44-8.54,8.71-12.29,12.05-1.75,1.55-3.41,3.27-5.11,4.88-6.31,5.94-12.25,12.2-17.89,18.79-2.04,2.39-3.69,5.34-6.32,7.14-9,6.17-19.63-3.73-13.99-13.15,2.1-3.5,7.73-7.17,10.95-10.03,1.52-1.34,2.96-2.82,4.44-4.2,4.83-4.51,9.53-9.18,14-14.06C39.39,11.96,44.45.17,53.8,2.75c.86.24,2.13.79,2.83,1.32h0ZM39.07,12.9l9.52,1.66,2.05,9.57c1.59-1.56,3.64-2.83,5.25-4.32,10.57-9.84-2.79-22.7-12.32-12.53l-4.5,5.61h0ZM49.57,25.01c-.26-1.08-.5-2.2-.67-3.3-.13-.84-.24-1.59-.39-2.43-.22-1.24-.34-2.5-.64-3.73l-9.27-1.64-.41.12-4.02,4.33c-2.28,2.45-4.51,5.09-6.99,7.3l-7.28,7.32-5.6,4.92,1.51,9.65c1.27.56,2.68.47,4.01.68,1.41.23,3.84.89,5.13.9.29,0,.56.09.82-.13,7.29-8.62,15.41-16.51,23.8-24.01h0ZM24.6,50.17l-9.52-1.66-1.83-9.63c-1.7,1.49-3.81,2.89-5.45,4.4-9.51,8.72.98,21.52,10.97,13.86,2.16-2.12,3.97-4.59,5.85-6.96h0Z"/>
    <path class="cls-2" d="M36.05,24.23c.91.75-.53,2.16-1.34,1.04-.58-.78.64-1.63,1.34-1.04Z"/>
    <path class="cls-2" d="M39.3,27.45c.91.75-.53,2.16-1.34,1.04-.58-.78.64-1.63,1.34-1.04Z"/>
    <path class="cls-2" d="M38.62,21.38c1.1.62-.18,2.23-1.09,1.29-.52-.54.14-1.83,1.09-1.29Z"/>
    <path class="cls-2" d="M25.6,40.98c1.02.55,0,1.98-.82,1.54-.98-.55-.13-2.04.82-1.54Z"/>
    <path class="cls-2" d="M25.57,35.6c.06.94-1.49,1.31-1.75.21s1.69-1.27,1.75-.21Z"/>
    <path class="cls-2" d="M41.88,24.61c1.1.6-.18,2.25-1.08,1.3-.57-.58.25-1.75,1.08-1.3Z"/>
    <path class="cls-2" d="M22.35,37.75c1.04.56-.06,2.12-.94,1.39-.76-.63.07-1.87.94-1.39Z"/>
    <path class="cls-2" d="M28.15,38.13c1.01.5.48,1.87-.41,1.58-1.32-.44-.42-1.98.41-1.58Z"/>
  </g>
  <line class="cls-1" x1="62" y1="2" x2="2" y2="62"/>
  <rect x="39" y="62" width="2" height="2"/>
</svg>