<?xml version="1.0" encoding="UTF-8"?>
<svg id="_图层_1" data-name="图层 1" xmlns="http://www.w3.org/2000/svg" viewBox="0 0 64 64">
  <defs>
    <style>
      .cls-1 {
        stroke: #000;
        stroke-miterlimit: 10;
        stroke-width: 2px;
      }

      .cls-2 {
        fill: none;
      }
    </style>
  </defs>
  <line class="cls-2" x1="62" y1="2" x2="2" y2="62"/>
  <path class="cls-1" d="M15.54,2.06c6.74-.74,11.27,5.31,12.76,11.16,2.36,9.3-1.04,25.46-3.09,35-1,4.66-1.77,12.8-7.85,13.38-8.04.77-8.66-7.2-9.88-13.04-2.11-10.05-5.67-27.33-2.27-36.92C6.85,6.98,10.28,2.64,15.54,2.06ZM14.98,3.36c-4.6.7-7.64,5.47-8.88,9.56-2.4,7.88-.39,18.85.97,26.94.8,4.75,1.81,11.26,3.25,15.75,1.55,4.86,7.19,6.81,10.63,2.52,1.58-1.97,2.39-7.26,2.95-9.9,2.13-9.87,6.04-27.62,2.43-36.96-1.87-4.85-5.76-8.77-11.36-7.91Z"/>
  <path class="cls-1" d="M46.64,2.06c6.45-.69,10.9,4.56,12.61,10.19,2.38,7.86.36,18.98-1.08,27.03-.73,4.07-2.77,15.97-4.71,18.94-3.7,5.68-11.25,4.13-13.3-2.12-2.54-7.75-4.4-20.63-5.21-28.87s.5-23.98,11.69-25.18ZM46.26,3.36c-6.01.82-9.01,7.91-9.92,13.17-1.5,8.59,1.47,23.14,3.32,31.89.84,3.95,1.29,10.32,5.76,11.74,3.89,1.24,6.76-1.11,7.91-4.67,2.56-7.92,4.63-20.46,5.45-28.81.82-8.29-.15-25.02-12.52-23.32Z"/>
  <path class="cls-1" d="M22.86,31.64c-.17.19.05,4.36-.01,5.11-.38,4.98-4.88,7.89-9.55,5.81-4.15-1.85-3.91-6.98-3.48-10.82-2.8-.28-2.39-2.84-2.25-5.05s.05-4.29.18-6.53c.33-5.83,3.66-15.76,11.44-12.72,5.86,2.29,5.64,11.57,5.71,16.65.01,1.03.15,1.6.18,2.41.05,1.12.24,3.71-.55,4.49-.48.47-1.61.59-1.67.66ZM23.59,24.73c.16-.16.22-4.02.2-4.57-.11-2.64-.84-6.52-2.17-8.82-2.69-4.66-7.87-4.07-10.35.42-2.1,3.8-2.51,8.73-2.2,12.97,1.72.35,1-1.7,1.12-2.88.69-6.9,10.87-6.76,12.06-1.08.2.94.04,3,.26,3.65.12.37,1,.39,1.09.31ZM21.35,24.73c-.2-1.66.09-3.69-.93-5.12-1.79-2.49-7.02-2.46-8.46.29-.69,1.32-.59,3.35-.66,4.83h10.06ZM9.34,25.85c-.08.12-.47.41-.47.47v3.72l.28.28h14.34l.28-.28v-3.72s-.43-.47-.47-.47h-13.97ZM21.54,31.43h-10.33l-.28.28v5.96c0,.29.75,1.89.96,2.2,1.72,2.5,5.77,2.8,7.98.78.53-.49,1.67-2.32,1.67-2.98v-6.24Z"/>
  <path class="cls-1" d="M42.46,41.24c-.73-.76-1.54-2.19-1.69-3.24-.15-1,.14-6.12-.07-6.36s-1.78.01-2.02-1.43c-.1-.61-.15-3.01-.09-3.65.22-2.32.11-4.28.26-6.59.28-4.38,2.47-12.35,7.73-12.94,8.26-.92,9.83,9.42,9.59,15.55-.07,1.75-.07,2.4,0,4.1.04.91.11,2.46-.05,3.31-.32,1.73-1.99,1.24-2.17,1.74-.29.85.08,3.98-.02,5.2-.48,5.87-7.53,8.42-11.49,4.3ZM53.57,24.73c.4-.02,1.12.16,1.28-.31.21-4.06.16-8.68-1.7-12.4-2.33-4.62-7.36-5.45-10.34-.95-2.55,3.85-2.89,9.17-2.64,13.65h.93c.04-1.75-.02-3.84.85-5.39,2.49-4.43,11.63-3.26,11.63,2.32v3.07ZM52.45,24.73c-.21-1.71.13-3.66-.93-5.12s-2.82-1.84-4.57-1.78c-4.01.15-4.67,3.08-4.66,6.52,0,.15.07.38.2.38h9.96ZM40.26,30.32h14.34c.53,0,1.15-4.88-.73-4.48l-13.66.14c-.64.27-.65,4.15.05,4.35ZM52.64,31.43h-10.52l-.28.28v5.59c0,.52.84,2.23,1.21,2.7,1.98,2.55,6.3,2.62,8.37.17.31-.36,1.23-1.93,1.23-2.31v-6.42Z"/>
</svg>