<?xml version="1.0" encoding="UTF-8"?>
<svg id="_图层_1" data-name="图层 1" xmlns="http://www.w3.org/2000/svg" viewBox="0 0 64 64">
  <defs>
    <style>
      .cls-1 {
        stroke: #000;
        stroke-miterlimit: 10;
        stroke-width: 2.21px;
      }

      .cls-2 {
        fill: none;
      }
    </style>
  </defs>
  <line class="cls-2" x1="62" y1="2" x2="2" y2="62"/>
  <path class="cls-1" d="M33.52,37.99c2.84,1.11,5.57,2.61,8.42,3.69,5.37,2.03,12.15,1.71,12.27,9.05.01.72-.32,1.51-.21,2.13.09.49.65.69.76,1.38.58,3.36-1.98,4.55-4.68,5.37-7.47,2.25-16.96.25-24.66-.07-2.36,1.31-5.58,1.17-8.33.99-3.63-.23-7.09-1.12-7.46-5.33-.7-7.92,1.71-15.74,2.69-23.47.78-6.09.76-12.56,1.59-18.56.16-1.12,1.05-1.37,1.15-1.97.4-2.46-3.42-8.92,2.13-8.13,3.44,1.1,7.93,4.61,11.22,5.44,2.36.59,7.26-.97,8.64,1.82,1.1,2.23-.73,6.02-.82,8.45,2.27,1.18,2.99,2.61,2.63,5.2-.2,1.46-1.62,3.04-3.07,3.32-.66.13-1.32-.21-1.52.22-.37.82-1.13,5.14-1.2,6.17-.1,1.45,0,2.92.43,4.3ZM31.92,37.07c-.65-3.38.56-6.69,1.16-9.97-.05-.52-.64-.6-.94-1-1.46-1.92-1.04-5.69,1.19-6.89.45-.24,1.48-.37,1.6-.53.2-.27,1.21-5.92,1.23-6.53.12-3.26-4.92-1.98-7.05-2.2-3-.31-8.65-4.24-11.79-5.45-.52-.2-1.56-.65-1.84.16-.1.3.7,6.07.96,6.24.21.13,2.72,0,3.34.05.84.08,1.93.32,2.76.53,9.19,2.3,5.87,8.2,4.59,15.1-.35,1.86-1.47,5.91-.61,7.47.77,1.39,3.94,2.46,5.4,3.03ZM52.61,53.11c.76-1.04.11-4.93-.73-6.06-1.53-2.04-7.94-3.23-10.65-4.27-4.05-1.55-9.45-3.88-13.25-5.93-2.57-1.39-3.25-2.48-3.04-5.5.28-3.92,2.98-11.08,2.51-14.51s-6.47-4.68-9.37-4.77c-2.44-.08-2.72.33-3.01,2.63-.76,6.02-.76,12.29-1.58,18.37-.55,4.05-3.2,13.61-2.21,16.99.94,3.19,3.92,2.13,6.41,2.31,1.68.12,3.87.43,5.47.92,1.08.33,2.65,1.39,3.48,1.56,1.67.33,4.53.35,6.34.44,4.8.25,11.81.66,16.34-.73.42-.13,3.17-1.29,3.29-1.46ZM36.89,20.67c-3.07-2.96-6.17,3.4-3.21,5.05,3.21,1.8,5.31-3.02,3.21-5.05ZM11,52.18v3.78c0,.61,1.15,1.85,1.68,2.2,1.59,1.04,7.88,1.45,9.83,1.18,1-.14,1.41-.94,2.35-1.14,5.66.34,24.51,3.04,28.26-1.57.43-.53.93-2.31.03-2.31-.3,0-2.68,1.24-3.4,1.46-5.15,1.54-16.99,1.06-22.57.48-1.96-.2-4.16-1.87-6.64-2.27-3.27-.52-7.11.64-9.54-1.8Z"/>
</svg>